<svg width="42" height="42" viewBox="0 0 42 42" fill="none" xmlns="http://www.w3.org/2000/svg">
<path d="M21 0.25C32.4583 0.250001 41.833 9.60419 41.833 21.125C41.8442 26.0949 40.0787 30.9054 36.8545 34.6875C33.6301 38.4697 29.1593 40.9747 24.25 41.75V27.167H29.1045L30.042 21.125H24.25V17.208C24.2501 15.5624 25.0626 13.9581 27.6455 13.958H30.2705V8.8125C30.2388 8.80723 27.8805 8.41699 25.625 8.41699C20.8543 8.41699 17.7501 11.2916 17.75 16.5205V21.125H12.458V27.167H17.75V41.75C7.79167 40.1875 0.166992 31.5417 0.166992 21.125C0.167013 9.60419 9.54168 0.25 21 0.25Z" fill="#FBFBFB"/>
</svg>
