<svg width="42" height="30" viewBox="0 0 42 30" fill="none" xmlns="http://www.w3.org/2000/svg">
<path d="M21 0.416992C29.7291 0.416992 35.1666 0.749689 37.3125 1.33301C39.1875 1.85384 40.3962 3.0625 40.917 4.9375C41.1878 5.91659 41.375 7.22904 41.5 8.89551C41.6458 10.5622 41.708 12 41.708 13.25L41.833 15C41.833 19.5624 41.5003 22.9167 40.917 25.0625C40.3962 26.9375 39.1875 28.1462 37.3125 28.667C36.3334 28.9378 34.5417 29.125 31.792 29.25C29.0837 29.3958 26.6042 29.458 24.3125 29.458L21 29.583C12.2709 29.583 6.83339 29.2503 4.6875 28.667C2.8125 28.1462 1.60384 26.9375 1.08301 25.0625C0.812204 24.0834 0.624996 22.771 0.5 21.1045C0.354167 19.4378 0.291992 18 0.291992 16.75L0.166992 15C0.166992 10.4376 0.499688 7.08334 1.08301 4.9375C1.60384 3.0625 2.8125 1.85384 4.6875 1.33301C5.66665 1.0622 7.45827 0.874996 10.208 0.75C12.9163 0.604167 15.3958 0.541992 17.6875 0.541992L21 0.416992ZM16.833 21.25L27.6455 15L16.833 8.75V21.25Z" fill="#FBFBFB"/>
</svg>
